<svg xmlns="http://www.w3.org/2000/svg" width="120" height="160" viewBox="0 0 120 160">
  <metadata><?xpacket begin="﻿" id="W5M0MpCehiHzreSzNTczkc9d"?>
<x:xmpmeta xmlns:x="adobe:ns:meta/" x:xmptk="Adobe XMP Core 5.6-c138 79.159824, 2016/09/14-01:09:01        ">
   <rdf:RDF xmlns:rdf="http://www.w3.org/1999/02/22-rdf-syntax-ns#">
      <rdf:Description rdf:about=""/>
   </rdf:RDF>
</x:xmpmeta>
                                                                                                    
                                                                                                    
                                                                                                    
                                                                                                    
                                                                                                    
                                                                                                    
                                                                                                    
                                                                                                    
                                                                                                    
                                                                                                    
                                                                                                    
                                                                                                    
                                                                                                    
                                                                                                    
                                                                                                    
                                                                                                    
                                                                                                    
                                                                                                    
                                                                                                    
                                                                                                    
                           
<?xpacket end="w"?></metadata>
<defs>
    <style>
      .cls-1 {
        fill: #aaa;
      }

      .cls-1, .cls-2, .cls-4, .cls-5 {
        fill-rule: evenodd;
      }

      .cls-2 {
        fill: #333;
      }

      .cls-3 {
        fill: #c0ab69;
      }

      .cls-4 {
        fill: #ecbc70;
      }

      .cls-5 {
        fill: #ebb96f;
      }

      .cls-6 {
        fill: #1547ac;
      }

      .cls-7 {
        fill: #efbf78;
      }
    </style>
  </defs>
  <path id="layer01" class="cls-1" d="M0,160V150H10V140H40v20H0Z"/>
  <path id="layer01-2" data-name="layer01" class="cls-1" d="M80,160V140h30v10h10v10H80Z"/>
  <path id="layer03" class="cls-2" d="M70,140V130H50v10H20V120H30V100H90v20h10v20H70Z"/>
  <rect id="layer02" class="cls-3" x="40" y="100" width="10" height="10"/>
  <rect id="layer02-2" data-name="layer02" class="cls-3" x="70" y="100" width="10" height="10"/>
  <path id="layer03-2" data-name="layer03" class="cls-2" d="M40,100V70H50V90H70V80H80v20H40Z"/>
  <path id="layer01-3" data-name="layer01" class="cls-1" d="M70,80V90H50V70H80V80H70ZM30,50H40V60H30V50Z"/>
  <path id="layer01-4" data-name="layer01" class="cls-1" d="M100,100v10H90V100H80V80h30v20H100Z"/>
  <path id="layer01-5" data-name="layer01" class="cls-1" d="M30,100v10H20V100H0V90H10V80H20V70H40v30H30Z"/>
  <path id="layer02-3" data-name="layer02" class="cls-4" d="M100,130V120H90V110h10V100h20v30H100Z"/>
  <path id="layer02-4" data-name="layer02" class="cls-4" d="M20,120v10H0V100H20v10H30v10H20Z"/>
  <path id="layer02-5" data-name="layer02" class="cls-4" d="M100,60V70H30V60h0V50H40V20H70V40H80V50H70V60h30Z"/>
  <path id="layer01-6" data-name="layer01" class="cls-1" d="M70,60V50H80V40H90V50h20V60H70Z"/>
  <path id="layer02-6" data-name="layer02" class="cls-5" d="M90,50V40H80V20H90V30h20V40h10V50H90Z"/>
  <rect id="layer01-7" data-name="layer01" class="cls-6" x="70" y="20" width="10" height="20"/>
  <path id="layer03-3" data-name="layer03" class="cls-2" d="M20,20V10H30V0H80V10h30V20H20Z"/>
  <path id="layer01-8" data-name="layer01" class="cls-1" d="M50,40V50H30V30H20V20H50V30H40V40H50Z"/>
  <rect id="layer02-7" data-name="layer02" class="cls-7" x="20" y="30" width="10" height="20"/>
  <path id="layer01-9" data-name="layer01" class="cls-1" d="M20,60H10V30H20V50H30V60H20Z"/>
</svg>
