<svg xmlns="http://www.w3.org/2000/svg" width="160" height="160" viewBox="0 0 160 160">
  <metadata><?xpacket begin="﻿" id="W5M0MpCehiHzreSzNTczkc9d"?>
<x:xmpmeta xmlns:x="adobe:ns:meta/" x:xmptk="Adobe XMP Core 5.6-c138 79.159824, 2016/09/14-01:09:01        ">
   <rdf:RDF xmlns:rdf="http://www.w3.org/1999/02/22-rdf-syntax-ns#">
      <rdf:Description rdf:about=""/>
   </rdf:RDF>
</x:xmpmeta>
                                                                                                    
                                                                                                    
                                                                                                    
                                                                                                    
                                                                                                    
                                                                                                    
                                                                                                    
                                                                                                    
                                                                                                    
                                                                                                    
                                                                                                    
                                                                                                    
                                                                                                    
                                                                                                    
                                                                                                    
                                                                                                    
                                                                                                    
                                                                                                    
                                                                                                    
                                                                                                    
                           
<?xpacket end="w"?></metadata>
<defs>
    <style>
      .cls-1, .cls-4 {
        fill: #aaa;
      }

      .cls-1, .cls-2, .cls-5, .cls-7 {
        fill-rule: evenodd;
      }

      .cls-2, .cls-6 {
        fill: #333;
      }

      .cls-3 {
        fill: #c0ab69;
      }

      .cls-5 {
        fill: #ecbc70;
      }

      .cls-7 {
        fill: #ebb96f;
      }

      .cls-8 {
        fill: #1547ac;
      }

      .cls-9 {
        fill: #efbf78;
      }
    </style>
  </defs>
  <path id="layer01" class="cls-1" d="M10,160V140H20V130H30l-0.25-10H40v10l10-.25V140H40v10H20v10H10Z"/>
  <path id="layer01-2" data-name="layer01" class="cls-1" d="M160,140H140V110h10V90h10v50Z"/>
  <path id="layer03" class="cls-2" d="M130,140V110h10v30H130Zm-30,10H70v10H40V140H50V130H40V110H60v10H70V110h50v10h10v20H100v10Z"/>
  <rect id="layer02" class="cls-3" x="90" y="110" width="10" height="10"/>
  <rect id="layer02-2" data-name="layer02" class="cls-3" x="120" y="110" width="10" height="10"/>
  <path id="layer01-3" data-name="layer01" class="cls-1" d="M120,90v10H90V90H80V80h30V90h10ZM60,60H70V70H60V60Z"/>
  <rect id="layer01-4" data-name="layer01" class="cls-4" x="140" y="60" width="10" height="10"/>
  <path id="layer01-5" data-name="layer01" class="cls-1" d="M70,110v10H60V110H20V100H10V90H20V80H70V90H80v20H70Z"/>
  <path id="layer03-2" data-name="layer03" class="cls-2" d="M80,110V90H90v10h30V90h10v20H80Z"/>
  <path id="layer02-3" data-name="layer02" class="cls-5" d="M140,30V20H130V0h30V30H140Z"/>
  <path id="layer02-4" data-name="layer02" class="cls-5" d="M20,120v10H9.667L10,120l-10-.333V100H20v10H30v10H20Z"/>
  <path id="layer01-6" data-name="layer01" class="cls-1" d="M160,50V60H150V50H130V30h30V50h0Z"/>
  <path id="layer02-5" data-name="layer02" class="cls-5" d="M130,70V80H60V70h0V60H70V30h30V50h10V60H100V70h30Z"/>
  <path id="layer01-7" data-name="layer01" class="cls-1" d="M100,70V60h10V50h10V60h20V80H130V70H100Z"/>
  <rect id="layer01-8" data-name="layer01" class="cls-4" x="120" y="80" width="10" height="10"/>
  <rect id="layer03-3" data-name="layer03" class="cls-6" x="110" y="80" width="10" height="10"/>
  <rect id="layer03-4" data-name="layer03" class="cls-6" x="70" y="80" width="10" height="10"/>
  <path id="layer02-6" data-name="layer02" class="cls-7" d="M120,60V50H110V30h10V40h10V50h20V60H120Z"/>
  <rect id="layer01-9" data-name="layer01" class="cls-8" x="100" y="30" width="10" height="20"/>
  <path id="layer03-5" data-name="layer03" class="cls-2" d="M50,30V20H60V10h50V20h30V30H50Z"/>
  <path id="layer01-10" data-name="layer01" class="cls-1" d="M80,50V60H60V40H50V30H80V40H70V50H80Z"/>
  <rect id="layer02-7" data-name="layer02" class="cls-9" x="50" y="40" width="10" height="20"/>
  <path id="layer01-11" data-name="layer01" class="cls-1" d="M50,70H40V40H50V60H60V70H50Z"/>
</svg>
